{"title":"Love.Is.All.You.Need.2012.720p.BluRay.x264-HANDJOB","uid":11005307,"size":5294216001,"categoryP":"video","categoryS":"hd___movies","magnet":"?xt=urn:btih:39ce44998f5227dc760b41e4882a13401a579d0d&amp;dn=Love.Is.All.You.Need.2012.720p.BluRay.x264-HANDJOB&amp;tr=udp%3A%2F%2Ftracker.openbittorrent.com%3A80&amp;tr=udp%3A%2F%2Fopen.demonii.com%3A1337&amp;tr=udp%3A%2F%2Ftracker.coppersurfer.tk%3A6969&amp;tr=udp%3A%2F%2Fexodus.desync.com%3A6969","seeders":1,"leechers":3,"uploader":"rpessoa","files":1,"time":1410217062,"description":"A hairdresser who has lost her hair to cancer finds out her husband is having an affair, travels to Italy for her daughter's wedding and meets a widower who still blames the world for the loss of his wife.\n &lt;a href=&quot;\nhttp://www.imdb.com/title/tt1854236/&quot; rel=&quot;nofollow&quot; target=&quot;_NEW&quot;&gt;\nhttp://www.imdb.com/title/tt1854236/&lt;/a&gt;\n\nGeneral\nUnique ID                                : 235135447123828010759708911950364895705 (0xB0E5709AAEB21A738D8EE7DDA24369D9)\nComplete name                            : Love.Is.All.You.Need.2012.720p.BluRay.x264-HANDJOB.mkv\nFormat                                   : Matroska\nFormat version                           : Version 2\nFile size                                : 4.93 GiB\nDuration                                 : 1h 51mn\nOverall bit rate                         : 6 346 Kbps\nEncoded date                             : UTC 2013-02-08 00:12:59\nWriting application                      : mkvmerge v5.8.0 ('No Sleep / Pillow') built on Sep  2 2012 15:37:04\nWriting library                          : libebml v1.2.3 + libmatroska v1.3.0\n\nVideo\nID                                       : 1\nFormat                                   : AVC\nFormat/Info                              : Advanced Video Codec\nFormat profile                           : &lt;a class=&quot;__cf_email__&quot; href=&quot;/cdn-cgi/l/email-protection&quot; data-cfemail=&quot;b6fedfd1def6fa829886&quot;&gt;[email&amp;#160;protected]&lt;/a&gt;&lt;script cf-hash='f9e31' type=&quot;text/javascript&quot;&gt;\n/* &lt;![CDATA[ */!function(){try{var t=&quot;currentScript&quot;in document?document.currentScript:function(){for(var t=document.getElementsByTagName(&quot;script&quot;),e=t.length;e--;)if(t[e].getAttribute(&quot;cf-hash&quot;))return t[e]}();if(t&amp;&amp;t.previousSibling){var e,r,n,i,c=t.previousSibling,a=c.getAttribute(&quot;data-cfemail&quot;);if(a){for(e=&quot;&quot;,r=parseInt(a.substr(0,2),16),n=2;a.length-n;n+=2)i=parseInt(a.substr(n,2),16)^r,e+=String.fromCharCode(i);e=document.createTextNode(e),c.parentNode.replaceChild(e,c)}}}catch(u){}}();/* ]]&gt; */&lt;/script&gt;\nFormat settings, CABAC                   : Yes\nFormat settings, ReFrames                : 12 frames\nCodec ID                                 : V_MPEG4/ISO/AVC\nDuration                                 : 1h 51mn\nBit rate                                 : 5 580 Kbps\nWidth                                    : 1 280 pixels\nHeight                                   : 544 pixels\nDisplay aspect ratio                     : 2.35:1\nFrame rate                               : 25.000 fps\nColor space                              : YUV\nChroma subsampling                       : 4:2:0\nBit depth                                : 8 bits\nScan type                                : Progressive\nBits/(Pixel*Frame)                       : 0.321\nStream size                              : 4.34 GiB (88%)\nWriting library                          : x264 core 120\nEncoding settings                        : cabac=1 / ref=12 / deblock=1:-3:-3 / analyse=0x3:0x133 / me=tesa / subme=10 / psy=1 / psy_rd=1.00:0.00 / mixed_ref=1 / me_range=16 / chroma_me=1 / trellis=2 / 8x8dct=1 / cqm=0 / deadzone=21,11 / fast_pskip=0 / chroma_qp_offset=-2 / threads=12 / sliced_threads=0 / nr=0 / decimate=1 / interlaced=0 / bluray_compat=0 / constrained_intra=0 / bframes=6 / b_pyramid=2 / b_adapt=2 / b_bias=0 / direct=3 / weightb=1 / open_gop=0 / weightp=2 / keyint=250 / keyint_min=25 / scenecut=40 / intra_refresh=0 / rc_lookahead=250 / rc=crf / mbtree=1 / crf=14.0 / qcomp=0.60 / qpmin=3 / qpmax=69 / qpstep=4 / ip_ratio=1.40 / aq=1:0.90\nLanguage                                 : Danish\nDefault                                  : Yes\nForced                                   : No\nColor primaries                          : BT.709-5, BT.1361, IEC 61966-2-4, SMPTE RP177\nTransfer characteristics                 : BT.709-5, BT.1361\nMatrix coefficients                      : BT.709-5, BT.1361, IEC 61966-2-4 709, SMPTE RP177\n\nAudio\nID                                       : 5\nFormat                                   : AC-3\nFormat/Info                              : Audio Coding 3\nMode extension                           : CM (complete main)\nCodec ID                                 : A_AC3\nDuration                                 : 1h 51mn\nBit rate mode                            : Constant\nBit rate                                 : 640 Kbps\nChannel(s)                               : 6 channels\nChannel positions                        : Front: L C R, Side: L R, LFE\nSampling rate                            : 48.0 KHz\nBit depth                                : 16 bits\nCompression mode                         : Lossy\nStream size                              : 509 MiB (10%)\nLanguage                                 : Danish\nDefault                                  : Yes\nForced                                   : No\n\nText #1\nID                                       : 2\nFormat                                   : UTF-8\nCodec ID                                 : S_TEXT/UTF8\nCodec ID/Info                            : UTF-8 Plain Text\nTitle                                    : Translation from SUBMISSIVE@PTP by JimmyScott &amp; Gator\nLanguage                                 : English\nDefault                                  : Yes\nForced                                   : No\n\nText #2\nID                                       : 3\nFormat                                   : UTF-8\nCodec ID                                 : S_TEXT/UTF8\nCodec ID/Info                            : UTF-8 Plain Text\nTitle                                    : Danish SDH\nLanguage                                 : Danish\nDefault                                  : No\nForced                                   : No\n\nText #3\nID                                       : 4\nFormat                                   : UTF-8\nCodec ID                                 : S_TEXT/UTF8\nCodec ID/Info                            : UTF-8 Plain Text\nTitle                                    : Danish (Foreign Parts)\nLanguage                                 : Danish\nDefault                                  : No\nForced                                   : No\n\nMenu\n00:00:00.000                             : en:Chapter 1\n00:09:59.560                             : en:Chapter 2\n00:19:59.920                             : en:Chapter 3\n00:29:59.640                             : en:Chapter 4\n00:39:59.680                             : en:Chapter 5\n00:49:59.680                             : en:Chapter 6\n00:59:59.760                             : en:Chapter 7\n01:09:59.920                             : en:Chapter 8\n01:19:59.600                             : en:Chapter 9\n01:29:59.880                             : en:Chapter 10\n01:39:59.720                             : en:Chapter 11\n01:51:12.680                             : en:Chapter 12","torrent":{"xt":"urn:btih:39ce44998f5227dc760b41e4882a13401a579d0d","amp;dn":"Love.Is.All.You.Need.2012.720p.BluRay.x264-HANDJOB","amp;tr":["udp%3A%2F%2Ftracker.openbittorrent.com%3A80","udp%3A%2F%2Fopen.demonii.com%3A1337","udp%3A%2F%2Ftracker.coppersurfer.tk%3A6969","udp%3A%2F%2Fexodus.desync.com%3A6969"],"infoHash":"39ce44998f5227dc760b41e4882a13401a579d0d","infoHashBuffer":{"type":"Buffer","data":[57,206,68,153,143,82,39,220,118,11,65,228,136,42,19,64,26,87,157,13]},"announce":[],"urlList":[]}}